<svg xmlns="http://www.w3.org/2000/svg" viewBox="0 0 900 600"><rect width="900" height="600" fill="#00008b"/><path d="M0 0l360 240M360 0L0 240" stroke="#fff" stroke-width="48"/><path d="M0 0l360 240M360 0L0 240" stroke="#cf142b" stroke-width="22"/><path d="M180 0v240M0 120h360" stroke="#fff" stroke-width="80"/><path d="M180 0v240M0 120h360" stroke="#cf142b" stroke-width="45"/><g fill="#fff"><path d="M700 430l12 35 37 0-30 22 12 36-31-22-31 22 12-36-30-22 37 0z"/><circle cx="780" cy="120" r="14"/><circle cx="730" cy="170" r="11"/><circle cx="790" cy="210" r="10"/><circle cx="680" cy="175" r="9"/><circle cx="675" cy="275" r="8"/></g></svg>